<?xml version="1.0" encoding="utf-8"?>
<!-- Generator: Adobe Illustrator 18.1.0, SVG Export Plug-In . SVG Version: 6.00 Build 0)  -->
<svg version="1.2" baseProfile="tiny" id="Réteg_1"
	 xmlns="http://www.w3.org/2000/svg" xmlns:xlink="http://www.w3.org/1999/xlink" x="0px" y="0px" viewBox="0 0 50 50"
	 xml:space="preserve">
<g class="svgicon">
<path d="M16.2,46.5c-0.2,0-0.4,0-0.6-0.1c-0.9-0.3-1.3-1.4-1-2.2L29.8,4.8c0.3-0.9,1.4-1.3,2.2-1
	c0.9,0.3,1.3,1.4,1,2.2L17.8,45.5C17.6,46.1,16.9,46.5,16.2,46.5z"/>
<path d="M9.4,33.5c-0.4,0-0.9-0.2-1.2-0.5l-7.5-7.3c-0.3-0.3-0.5-0.8-0.5-1.2c0-0.4,0.2-1,0.5-1.2L8.1,16
	c0.7-0.7,1.8-0.6,2.4,0.1c0.7,0.7,0.6,1.8-0.1,2.4l-6.2,6.1l6.2,6c0.7,0.7,0.7,1.7,0.1,2.4C10.2,33.3,9.8,33.5,9.4,33.5z"/>
<path d="M40.6,33.5c-0.4,0-0.9-0.2-1.2-0.5c-0.7-0.7-0.6-1.8,0.1-2.4l6.2-6l-6.2-6.1c-0.7-0.7-0.7-1.7-0.1-2.4
	c0.7-0.7,1.7-0.7,2.4-0.1l7.5,7.3c0.3,0.3,0.5,0.8,0.5,1.2c0,0.4-0.2,1-0.5,1.2l-7.5,7.3C41.4,33.3,41,33.5,40.6,33.5z"/>
</g>
</svg>
