<?xml version="1.0" encoding="utf-8"?>
<!-- Generator: Adobe Illustrator 18.1.0, SVG Export Plug-In . SVG Version: 6.00 Build 0)  -->
<svg version="1.2" baseProfile="tiny" id="Layer_1" xmlns="http://www.w3.org/2000/svg" xmlns:xlink="http://www.w3.org/1999/xlink"
	 x="0px" y="0px" viewBox="0 0 48 48" xml:space="preserve">
<g>
	<path fill="#FFFFFF" d="M18,18.6h-2.7c-1.2,0-2.1-1-2.1-2.2c0-1.2,1-2.1,2.1-2.1H18v-2.9c0-3.8,1-6.8,2.9-8.7
		C22.6,0.9,25.1,0,28.1,0c1.6,0,2.9,0.1,4,0.4c1,0.2,1.8,1,1.8,2.1c0,1.3-1.1,2.3-2.4,2.1c-0.8-0.1-1.8-0.3-2.7-0.3
		c-3.9,0-5.9,2.3-5.9,7.2v2.7h8.7c1.2,0,2.2,0.9,2.2,2.1c0,1.2-1,2.1-2.2,2.1H23v27c0,1.4-1,2.5-2.5,2.5c-1.4,0-2.5-1.2-2.5-2.5
		V18.6z"/>
</g>
</svg>
