<?xml version="1.0" encoding="utf-8"?>
<!-- Generator: Adobe Illustrator 19.2.1, SVG Export Plug-In . SVG Version: 6.00 Build 0)  -->
<svg version="1.1" id="Réteg_1" xmlns="http://www.w3.org/2000/svg" xmlns:xlink="http://www.w3.org/1999/xlink" x="0px" y="0px"
	 viewBox="0 0 48 48" style="enable-background:new 0 0 48 48;" xml:space="preserve">
<style type="text/css">
	.st0{fill:none;enable-background:new    ;}
	.st1{fill:#FFFFFF;}
</style>
<path class="st0" d="z"/>
<path class="st1" d="M24,0.2C10.7,0.2,0,10.9,0,24.1C0,37.3,10.7,48,24,48s24-10.7,24-23.9C48,10.9,37.3,0.2,24,0.2z M30.2,16.1
	l-2.3,0c-1.8,0-2.1,0.8-2.1,2.1v2.7h4.2l-0.6,4.3h-3.7V36h-4.4V25.1h-3.7v-4.3h3.7v-3.1c0-3.6,2.2-5.6,5.5-5.6
	c1.6,0,2.9,0.1,3.3,0.2V16.1z"/>
</svg>
