<?xml version="1.0" encoding="utf-8"?>
<!-- Generator: Adobe Illustrator 18.1.0, SVG Export Plug-In . SVG Version: 6.00 Build 0)  -->
<svg version="1.2" baseProfile="tiny" id="Réteg_1"
	 xmlns="http://www.w3.org/2000/svg" xmlns:xlink="http://www.w3.org/1999/xlink" x="0px" y="0px" viewBox="0 0 17 38"
	 xml:space="preserve">
	<style>
		.naviconsvg{
	fill:#fff;
}
	</style>
	<path class="naviconsvg"  d="M4.3,14.9H2.1c-1,0-1.7-0.8-1.7-1.7c0-0.9,0.8-1.7,1.7-1.7h2.2V9.1c0-3,0.8-5.3,2.3-6.8
		c1.3-1.3,3.3-2.1,5.7-2.1c1.3,0,2.3,0.1,3.1,0.3c0.8,0.2,1.4,0.8,1.4,1.7c0,1-0.9,1.8-1.9,1.7c-0.7-0.1-1.4-0.3-2.2-0.3
		c-3.1,0-4.6,1.9-4.6,5.7v2.2h6.9c1,0,1.7,0.7,1.7,1.7c0,0.9-0.8,1.7-1.7,1.7H8.2v21.3c0,1.1-0.8,2-2,2c-1.1,0-2-0.9-2-2V14.9z"/>
</svg>
