<?xml version="1.0" encoding="utf-8"?>
<!-- Generator: Adobe Illustrator 18.1.0, SVG Export Plug-In . SVG Version: 6.00 Build 0)  -->
<svg version="1.2" baseProfile="tiny" id="Réteg_1"
	 xmlns="http://www.w3.org/2000/svg" xmlns:xlink="http://www.w3.org/1999/xlink" x="0px" y="0px" viewBox="0 0 38 38"
	 xml:space="preserve">
<g id="Icons">
	<g id="Black" transform="translate(-500.000000, -160.000000)">
		<path id="Instagram" fill="#FFFFFF" d="M519,160c-5.2,0-5.8,0-7.8,0.1c-2,0.1-3.4,0.4-4.6,0.9c-1.2,0.5-2.3,1.1-3.4,2.2
			c-1.1,1.1-1.7,2.1-2.2,3.4c-0.5,1.2-0.8,2.6-0.9,4.6c-0.1,2-0.1,2.7-0.1,7.8c0,5.2,0,5.8,0.1,7.8c0.1,2,0.4,3.4,0.9,4.6
			c0.5,1.2,1.1,2.3,2.2,3.4c1.1,1.1,2.1,1.7,3.4,2.2c1.2,0.5,2.6,0.8,4.6,0.9c2,0.1,2.7,0.1,7.8,0.1c5.2,0,5.8,0,7.8-0.1
			c2-0.1,3.4-0.4,4.6-0.9c1.2-0.5,2.3-1.1,3.4-2.2c1.1-1.1,1.7-2.1,2.2-3.4c0.5-1.2,0.8-2.6,0.9-4.6c0.1-2,0.1-2.7,0.1-7.8
			c0-5.2,0-5.8-0.1-7.8c-0.1-2-0.4-3.4-0.9-4.6c-0.5-1.2-1.1-2.3-2.2-3.4c-1.1-1.1-2.1-1.7-3.4-2.2c-1.2-0.5-2.6-0.8-4.6-0.9
			C524.8,160,524.2,160,519,160z M519,163.4c5.1,0,5.7,0,7.7,0.1c1.9,0.1,2.9,0.4,3.5,0.7c0.9,0.3,1.5,0.8,2.2,1.4
			c0.7,0.7,1.1,1.3,1.4,2.2c0.3,0.7,0.6,1.7,0.7,3.5c0.1,2,0.1,2.6,0.1,7.7c0,5.1,0,5.7-0.1,7.7c-0.1,1.9-0.4,2.9-0.7,3.5
			c-0.3,0.9-0.8,1.5-1.4,2.2c-0.7,0.7-1.3,1.1-2.2,1.4c-0.7,0.3-1.7,0.6-3.5,0.7c-2,0.1-2.6,0.1-7.7,0.1c-5.1,0-5.7,0-7.7-0.1
			c-1.9-0.1-2.9-0.4-3.5-0.7c-0.9-0.3-1.5-0.8-2.2-1.4c-0.7-0.7-1.1-1.3-1.4-2.2c-0.3-0.7-0.6-1.7-0.7-3.5c-0.1-2-0.1-2.6-0.1-7.7
			c0-5.1,0-5.7,0.1-7.7c0.1-1.9,0.4-2.9,0.7-3.5c0.3-0.9,0.8-1.5,1.4-2.2c0.7-0.7,1.3-1.1,2.2-1.4c0.7-0.3,1.7-0.6,3.5-0.7
			C513.3,163.4,513.9,163.4,519,163.4z M519,169.2c-5.4,0-9.8,4.4-9.8,9.8c0,5.4,4.4,9.8,9.8,9.8c5.4,0,9.8-4.4,9.8-9.8
			C528.8,173.6,524.4,169.2,519,169.2z M519,185.3c-3.5,0-6.3-2.8-6.3-6.3c0-3.5,2.8-6.3,6.3-6.3c3.5,0,6.3,2.8,6.3,6.3
			C525.3,182.5,522.5,185.3,519,185.3z M531.4,168.9c0,1.3-1,2.3-2.3,2.3c-1.3,0-2.3-1-2.3-2.3s1-2.3,2.3-2.3
			C530.4,166.6,531.4,167.6,531.4,168.9z"/>
	</g>
</g>
</svg>
