<?xml version="1.0" encoding="utf-8"?>
<!-- Generator: Adobe Illustrator 17.0.0, SVG Export Plug-In . SVG Version: 6.00 Build 0)  -->
<!DOCTYPE svg PUBLIC "-//W3C//DTD SVG 1.1//EN" "http://www.w3.org/Graphics/SVG/1.1/DTD/svg11.dtd">
<svg version="1.1" id="Layer_1" xmlns="http://www.w3.org/2000/svg" xmlns:xlink="http://www.w3.org/1999/xlink" x="0px" y="0px"
	 width="379.84px" height="243.78px" viewBox="0 0 379.84 243.78" enable-background="new 0 0 379.84 243.78" xml:space="preserve">
<g>
	<path fill="#FFFFFF" d="M167.015,18.095l32.155,0.196c7.263,0.044,12.796,1.723,16.598,5.037c3.804,3.314,5.688,7.63,5.656,12.948
		s-1.818,9.362-5.355,12.131c-4.866,3.82-10.85,5.708-17.95,5.665l-11.621-0.07l-0.135,22.257c-0.008,1.293,0.295,2.22,0.909,2.782
		c0.818,0.71,1.917,1.069,3.298,1.078l7.404,0.045l-0.02,3.306l-31.335-0.191l0.02-3.306l6.552,0.04
		c1.298,0.008,2.25-0.243,2.859-0.754c0.607-0.51,0.915-1.206,0.92-2.088l0.316-51.961c0.008-1.322-0.37-2.279-1.133-2.872
		c-0.764-0.592-2.208-0.895-4.333-0.908l-4.825-0.029L167.015,18.095z M186.517,50.785l8.843,0.054
		c5.602,0.034,9.648-1.109,12.142-3.43c2.492-2.321,3.755-6.17,3.788-11.546c0.022-3.761-0.518-6.651-1.619-8.671
		c-1.103-2.019-2.729-3.521-4.879-4.503c-2.15-0.982-5.688-1.489-10.615-1.519c-3.256-0.02-5.319,0.276-6.188,0.888
		c-0.868,0.612-1.307,1.682-1.316,3.209L186.517,50.785z"/>
	<g>
		<g>
			<path fill="#FFFFFF" d="M161.831,110.083l2.005,0.012l5.414,9.668l5.558-9.602l2.004,0.012l-0.109,17.987l-1.927-0.012
				l0.088-14.493l-5.622,9.576l-0.077,0l-5.504-9.644l-0.088,14.492l-1.851-0.012L161.831,110.083z"/>
		</g>
	</g>
	<path fill="#FFFFFF" d="M217.028,128.357c-1.233-0.008-2.346-0.237-3.337-0.688c-0.99-0.451-1.835-1.082-2.532-1.892
		c-0.697-0.809-1.231-1.776-1.601-2.9c-0.37-1.124-0.551-2.363-0.543-3.716l0.001-0.18c0.008-1.302,0.212-2.513,0.613-3.633
		c0.4-1.119,0.954-2.088,1.662-2.905c0.707-0.818,1.555-1.456,2.543-1.912c0.987-0.457,2.072-0.681,3.254-0.674
		c1.165,0.007,2.171,0.176,3.017,0.506c0.846,0.331,1.652,0.815,2.419,1.454l-1.165,1.534c-0.545-0.5-1.16-0.906-1.843-1.218
		c-0.684-0.313-1.514-0.472-2.489-0.478c-0.857-0.005-1.65,0.174-2.38,0.538c-0.731,0.364-1.364,0.869-1.898,1.517
		c-0.535,0.648-0.956,1.42-1.26,2.318c-0.307,0.897-0.462,1.885-0.469,2.965l-0.001,0.128c-0.007,1.13,0.133,2.155,0.418,3.073
		c0.286,0.919,0.697,1.705,1.233,2.358c0.535,0.655,1.179,1.16,1.93,1.516c0.752,0.355,1.59,0.536,2.516,0.542
		c0.771,0.005,1.495-0.115,2.173-0.359c0.679-0.244,1.25-0.545,1.715-0.901l0.031-5.062l-4.497-0.027l0.01-1.722l6.347,0.039
		l-0.047,7.708c-0.705,0.562-1.552,1.049-2.539,1.463C219.321,128.16,218.226,128.363,217.028,128.357z"/>
	
		<rect x="146.561" y="99.518" fill="none" stroke="#FFFFFF" stroke-width="3" stroke-miterlimit="10" width="46.72" height="37.841"/>
	
		<rect x="193.281" y="99.518" fill="none" stroke="#FFFFFF" stroke-width="3" stroke-miterlimit="10" width="46.72" height="37.841"/>
	
		<rect x="146.561" y="0.313" fill="none" stroke="#FFFFFF" stroke-width="3" stroke-miterlimit="10" width="93.44" height="137.046"/>
	<path fill="#FFFFFF" d="M0,165.676h16.791c3.793,0,6.687,0.859,8.683,2.577c1.996,1.719,2.995,3.967,2.995,6.743
		c0,2.777-0.92,4.895-2.759,6.353c-2.528,2.01-5.646,3.015-9.354,3.015h-6.068v11.622c0,0.676,0.161,1.159,0.483,1.45
		c0.43,0.368,1.005,0.553,1.726,0.553h3.867v1.726H0v-1.726h3.421c0.678,0,1.175-0.135,1.49-0.403s0.474-0.633,0.474-1.093v-27.134
		c0-0.69-0.2-1.189-0.601-1.496s-1.155-0.461-2.265-0.461H0V165.676z M10.287,182.684h4.617c2.926,0,5.035-0.61,6.329-1.83
		c1.295-1.22,1.941-3.233,1.941-6.041c0-1.964-0.291-3.472-0.873-4.522s-1.436-1.829-2.562-2.336
		c-1.126-0.506-2.975-0.76-5.548-0.76c-1.7,0-2.776,0.161-3.228,0.483c-0.452,0.322-0.678,0.883-0.678,1.681V182.684z"/>
	<path fill="#FFFFFF" d="M39.492,165.676h17.583c3.406,0,6.049,0.775,7.929,2.324c1.879,1.55,2.819,3.583,2.819,6.099
		c0,1.504-0.372,2.843-1.116,4.017s-1.818,2.109-3.222,2.808c-1.404,0.698-3.61,1.2-6.617,1.507
		c2.188,0.599,3.696,1.186,4.522,1.761s1.488,1.32,1.985,2.232c0.498,0.913,1.072,2.773,1.724,5.581
		c0.466,2.011,0.959,3.383,1.48,4.12c0.399,0.567,0.829,0.852,1.289,0.852c0.476,0,0.917-0.35,1.323-1.048
		c0.406-0.697,0.656-1.929,0.748-3.693h1.565c-0.292,5.217-2.218,7.824-5.777,7.824c-1.12,0-2.09-0.283-2.911-0.851
		c-0.82-0.568-1.438-1.404-1.853-2.509c-0.322-0.829-0.683-3-1.082-6.514c-0.229-2.04-0.595-3.49-1.093-4.35
		c-0.499-0.858-1.277-1.549-2.336-2.071c-1.059-0.521-2.324-0.782-3.797-0.782h-2.785v13.371c0,0.568,0.146,0.967,0.438,1.197
		c0.368,0.291,0.943,0.438,1.726,0.438h3.269v1.726H39.492v-1.726h3.338c0.736,0,1.277-0.146,1.622-0.438
		c0.346-0.292,0.518-0.69,0.518-1.197v-27.202c0-0.583-0.176-1.021-0.529-1.313c-0.353-0.291-0.89-0.438-1.61-0.438h-3.338V165.676z
		 M49.872,181.326h4.027c2.7,0,4.813-0.509,6.341-1.527c1.526-1.019,2.29-2.83,2.29-5.435c0-1.792-0.288-3.209-0.863-4.25
		s-1.331-1.754-2.267-2.137c-0.937-0.383-2.777-0.575-5.523-0.575c-1.811,0-2.931,0.127-3.36,0.38s-0.645,0.686-0.645,1.298V181.326
		z"/>
	<path fill="#FFFFFF" d="M98.998,164.963c2.869,0,5.559,0.756,8.066,2.268c2.509,1.511,4.473,3.621,5.892,6.329
		s2.129,5.757,2.129,9.147c0,3.392-0.713,6.452-2.14,9.183c-1.428,2.731-3.388,4.86-5.881,6.387s-5.136,2.29-7.928,2.29
		c-2.731,0-5.294-0.748-7.688-2.244s-4.314-3.636-5.765-6.421c-1.45-2.784-2.175-5.872-2.175-9.263c0-3.345,0.702-6.364,2.105-9.057
		c1.404-2.692,3.326-4.802,5.766-6.329C93.82,165.726,96.359,164.963,98.998,164.963z M99.366,166.735
		c-2.991,0-5.416,1.243-7.272,3.729S89.31,177,89.31,182.615c0,6.091,0.951,10.303,2.854,12.635s4.258,3.498,7.065,3.498
		c1.964,0,3.689-0.529,5.178-1.588s2.674-2.738,3.556-5.04c0.883-2.302,1.324-5.324,1.324-9.067c0-4.081-0.415-7.269-1.243-9.563
		s-2.01-3.993-3.544-5.098C102.964,167.288,101.254,166.735,99.366,166.735z"/>
	<path fill="#FFFFFF" d="M126.393,165.676h11.333l10.174,26.881l9.362-26.881h11.593v1.726h-2.831c-0.997,0-1.669,0.146-2.014,0.438
		c-0.346,0.292-0.518,0.798-0.518,1.52v26.949c0,0.537,0.207,0.951,0.621,1.243c0.414,0.291,1.128,0.438,2.141,0.438h2.601v1.726
		h-15.581v-1.726h2.912c0.832,0,1.449-0.157,1.85-0.473c0.4-0.313,0.601-0.717,0.601-1.208v-28.906l-11.255,32.313h-1.551
		l-12.119-32.174v24.74c0,1.473,0.185,2.574,0.553,3.303s0.894,1.289,1.576,1.68c0.683,0.392,1.814,0.633,3.395,0.726v1.726h-12.842
		v-1.726c2.103-0.139,3.529-0.591,4.281-1.358c0.751-0.767,1.127-2.125,1.127-4.073v-23.475c0-0.583-0.176-1.009-0.529-1.277
		c-0.353-0.269-1.013-0.403-1.979-0.403h-2.9V165.676z"/>
	<path fill="#FFFFFF" d="M181.777,165.676h15.695v1.726h-2.692c-1.196,0-1.952,0.15-2.267,0.449s-0.472,0.932-0.472,1.898v25.776
		c0,1.028,0.138,1.673,0.414,1.933c0.368,0.354,1.035,0.53,2.002,0.53h3.015v1.726h-15.695v-1.726h2.969
		c1.043,0,1.719-0.153,2.025-0.461c0.307-0.307,0.46-0.974,0.46-2.002V169.75c0-0.981-0.138-1.588-0.414-1.818
		c-0.43-0.353-1.22-0.529-2.37-0.529h-2.67V165.676z"/>
	<path fill="#FFFFFF" d="M210.728,165.676h8.124l20.528,26.742v-19.354c0-1.948-0.445-3.391-1.335-4.327
		c-0.813-0.858-2.025-1.304-3.636-1.335v-1.726h11.921v1.726c-1.218,0-2.127,0.17-2.729,0.507c-0.602,0.338-1.125,0.951-1.572,1.841
		c-0.447,0.891-0.67,1.864-0.67,2.923v27.042h-2.163l-21.242-27.842v20.543c0,1.857,0.468,3.243,1.403,4.156
		c0.936,0.914,2.386,1.386,4.35,1.417v1.726h-12.979v-1.726c1.626-0.062,2.914-0.594,3.866-1.598
		c0.951-1.004,1.427-2.232,1.427-3.688v-23.051l-0.404-0.444c-0.767-0.835-1.312-1.329-1.632-1.483
		c-0.443-0.214-1.017-0.322-1.721-0.322h-1.536V165.676z"/>
	<path fill="#FFFFFF" d="M259.716,165.676h26.973l0.645,11.484h-1.542c-0.613-3.621-1.582-6.152-2.907-7.595
		c-1.326-1.442-3.053-2.164-5.183-2.164h-6.665c-0.536,0-0.942,0.146-1.218,0.438c-0.275,0.292-0.414,0.736-0.414,1.335v12.129
		h2.915c1.561,0,2.827-0.561,3.799-1.681c0.972-1.119,1.495-2.838,1.571-5.155h1.589v15.766h-1.589
		c-0.076-2.608-0.608-4.477-1.595-5.604s-2.329-1.691-4.028-1.691h-2.662v13.532c0,0.491,0.165,0.867,0.494,1.128
		c0.33,0.261,0.878,0.392,1.644,0.392h5.264c5.715,0,9.01-3.651,9.883-10.955h1.657l-0.575,12.681h-28.055v-1.726h2.324
		c0.905,0,1.542-0.157,1.91-0.473c0.368-0.313,0.553-0.771,0.553-1.369v-26.973c0-0.599-0.161-1.043-0.483-1.335
		c-0.322-0.291-0.829-0.438-1.52-0.438h-2.784V165.676z"/>
	<path fill="#FFFFFF" d="M301.601,165.676h8.124l20.528,26.742v-19.354c0-1.948-0.445-3.391-1.335-4.327
		c-0.813-0.858-2.025-1.304-3.636-1.335v-1.726h11.921v1.726c-1.218,0-2.127,0.17-2.729,0.507c-0.602,0.338-1.125,0.951-1.572,1.841
		c-0.447,0.891-0.67,1.864-0.67,2.923v27.042h-2.163l-21.242-27.842v20.543c0,1.857,0.468,3.243,1.403,4.156
		c0.936,0.914,2.386,1.386,4.35,1.417v1.726h-12.979v-1.726c1.626-0.062,2.914-0.594,3.866-1.598
		c0.951-1.004,1.427-2.232,1.427-3.688v-23.051l-0.404-0.444c-0.767-0.835-1.312-1.329-1.632-1.483
		c-0.443-0.214-1.017-0.322-1.721-0.322h-1.536V165.676z"/>
	<path fill="#FFFFFF" d="M350.199,165.676h27.641l0.667,12.865h-1.588c-1.046-7.564-3.783-11.347-8.211-11.347
		c-0.892,0-1.503,0.154-1.834,0.461s-0.496,0.813-0.496,1.519v27.203c0,0.552,0.161,0.959,0.483,1.22s0.852,0.392,1.588,0.392h3.43
		v1.726h-15.812v-1.726h3.913c0.521,0,0.92-0.131,1.196-0.392s0.414-0.606,0.414-1.036v-27.594c0-0.583-0.176-1.024-0.529-1.323
		c-0.353-0.299-0.92-0.449-1.702-0.449c-2.226,0-4.082,1.052-5.57,3.153c-1.228,1.734-2.109,4.465-2.646,8.193h-1.68
		L350.199,165.676z"/>
	<path fill="#FFFFFF" d="M89.972,225.226h1.985v2.288c0.403-0.68,0.918-1.277,1.543-1.792c0.625-0.514,1.452-0.771,2.481-0.771
		c0.975,0,1.792,0.239,2.454,0.717c0.661,0.478,1.167,1.112,1.516,1.902c0.221-0.35,0.469-0.685,0.745-1.007
		c0.275-0.321,0.593-0.602,0.95-0.841c0.358-0.238,0.763-0.427,1.214-0.564c0.45-0.139,0.951-0.207,1.502-0.207
		c1.396,0,2.509,0.459,3.336,1.378c0.827,0.92,1.24,2.215,1.24,3.888v9.373h-1.984v-8.85c0-1.323-0.271-2.32-0.813-2.991
		s-1.31-1.006-2.302-1.006c-0.479,0-0.92,0.092-1.323,0.275c-0.404,0.184-0.763,0.45-1.075,0.8c-0.313,0.349-0.557,0.776-0.73,1.281
		c-0.175,0.506-0.263,1.08-0.263,1.724v8.767h-1.984v-8.877c0-1.286-0.271-2.27-0.813-2.95c-0.542-0.68-1.31-1.02-2.302-1.02
		c-0.479,0-0.924,0.101-1.337,0.303c-0.414,0.203-0.772,0.482-1.075,0.841c-0.304,0.358-0.543,0.791-0.717,1.296
		c-0.175,0.506-0.262,1.062-0.262,1.668v8.739h-1.985V225.226z"/>
	<path fill="#FFFFFF" d="M123.879,239.893c-0.883,0-1.71-0.171-2.481-0.511c-0.772-0.34-1.445-0.827-2.02-1.461
		s-1.024-1.406-1.351-2.315c-0.327-0.91-0.489-1.935-0.489-3.074v-0.138c0-1.103,0.151-2.109,0.454-3.019
		c0.304-0.91,0.722-1.691,1.255-2.344c0.532-0.652,1.158-1.162,1.875-1.53c0.716-0.367,1.497-0.551,2.343-0.551
		c0.9,0,1.709,0.184,2.426,0.551c0.717,0.368,1.323,0.878,1.82,1.53c0.496,0.652,0.872,1.434,1.13,2.344
		c0.257,0.909,0.386,1.906,0.386,2.991c0,0.092,0,0.221,0,0.386s-0.01,0.313-0.027,0.441h-9.677
		c0.056,0.786,0.211,1.485,0.469,2.097c0.257,0.613,0.583,1.125,0.979,1.535c0.396,0.412,0.851,0.727,1.365,0.946
		c0.514,0.22,1.057,0.329,1.626,0.329c0.79,0,1.484-0.152,2.082-0.455c0.597-0.304,1.144-0.703,1.64-1.199l1.131,1.268
		c-0.644,0.668-1.355,1.198-2.137,1.59C125.896,239.697,124.963,239.893,123.879,239.893z M127.242,231.65
		c-0.037-0.68-0.144-1.323-0.318-1.93c-0.176-0.606-0.425-1.135-0.747-1.586c-0.323-0.45-0.711-0.804-1.162-1.061
		c-0.452-0.258-0.973-0.387-1.563-0.387c-0.534,0-1.033,0.12-1.494,0.358c-0.461,0.239-0.862,0.575-1.203,1.007
		c-0.342,0.432-0.618,0.951-0.83,1.558s-0.346,1.286-0.401,2.04H127.242z"/>
	<path fill="#FFFFFF" d="M142.917,239.865c-0.735,0-1.447-0.156-2.137-0.469c-0.689-0.312-1.301-0.775-1.833-1.392
		c-0.533-0.616-0.961-1.379-1.282-2.288c-0.321-0.91-0.482-1.962-0.482-3.157v-0.275c0-1.194,0.161-2.247,0.482-3.156
		c0.321-0.91,0.749-1.678,1.282-2.303c0.532-0.624,1.144-1.093,1.833-1.405s1.401-0.469,2.137-0.469
		c0.569,0,1.089,0.078,1.558,0.234s0.896,0.372,1.282,0.647c0.386,0.275,0.726,0.593,1.02,0.951s0.561,0.73,0.8,1.116v-8.215h1.984
		v19.904h-1.984v-2.757c-0.239,0.404-0.51,0.79-0.813,1.158c-0.304,0.367-0.647,0.688-1.034,0.965
		c-0.386,0.275-0.809,0.496-1.268,0.661C144.001,239.783,143.486,239.865,142.917,239.865z M143.33,238.073
		c0.569,0,1.112-0.128,1.627-0.386c0.515-0.257,0.974-0.629,1.378-1.116s0.727-1.07,0.966-1.751c0.238-0.68,0.358-1.442,0.358-2.288
		v-0.248c0-0.845-0.12-1.608-0.358-2.288c-0.239-0.68-0.562-1.264-0.966-1.751c-0.404-0.486-0.863-0.858-1.378-1.116
		c-0.515-0.257-1.058-0.386-1.627-0.386s-1.103,0.124-1.599,0.372s-0.933,0.606-1.31,1.075s-0.671,1.048-0.882,1.736
		c-0.212,0.689-0.317,1.476-0.317,2.357v0.221c0,0.882,0.11,1.668,0.331,2.357c0.221,0.688,0.515,1.272,0.882,1.75
		c0.367,0.479,0.804,0.841,1.31,1.089S142.779,238.073,143.33,238.073z"/>
	<path fill="#FFFFFF" d="M158.941,219.933h2.206v2.343h-2.206V219.933z M159.052,225.226h1.985v14.363h-1.985V225.226z"/>
	<path fill="#FFFFFF" d="M174.172,239.893c-0.608,0-1.188-0.102-1.741-0.304c-0.554-0.202-1.041-0.491-1.466-0.868
		c-0.424-0.377-0.764-0.841-1.022-1.393c-0.258-0.551-0.387-1.186-0.387-1.902v-0.11c0-1.488,0.482-2.633,1.447-3.432
		c0.965-0.8,2.247-1.199,3.846-1.199c0.772,0,1.447,0.055,2.026,0.165s1.135,0.248,1.668,0.413v-0.859
		c0-1.165-0.321-2.053-0.965-2.663s-1.544-0.916-2.701-0.916c-0.717,0-1.384,0.097-1.999,0.29c-0.616,0.192-1.172,0.418-1.668,0.675
		l-0.634-1.616c0.68-0.325,1.383-0.597,2.108-0.814c0.727-0.217,1.53-0.326,2.412-0.326c1.728,0,3.072,0.479,4.033,1.434
		c0.447,0.441,0.793,0.988,1.035,1.641c0.241,0.652,0.363,1.401,0.363,2.247v9.235h-1.985l0.023-2.095
		c-0.424,0.68-0.995,1.25-1.714,1.709S175.24,239.893,174.172,239.893z M174.601,238.239c0.552,0,1.066-0.087,1.544-0.262
		s0.896-0.428,1.255-0.759s0.643-0.717,0.854-1.157c0.211-0.441,0.316-0.929,0.316-1.462v-1.792
		c-0.459-0.165-0.979-0.303-1.558-0.413c-0.578-0.11-1.218-0.165-1.916-0.165c-1.157,0-2.04,0.271-2.646,0.813
		c-0.606,0.543-0.909,1.273-0.909,2.192v0.082c0,0.901,0.294,1.613,0.882,2.137C173.011,237.977,173.736,238.239,174.601,238.239z"
		/>
	<path fill="#FFFFFF" d="M207.848,243.78c-0.974,0-1.916-0.124-2.825-0.372c-0.91-0.248-1.788-0.639-2.633-1.172l0.8-1.599
		c0.68,0.44,1.415,0.785,2.205,1.033s1.599,0.372,2.426,0.372c1.36,0,2.431-0.358,3.212-1.074c0.781-0.717,1.172-1.792,1.172-3.226
		v-2.096c-0.496,0.809-1.126,1.503-1.889,2.081c-0.763,0.579-1.714,0.869-2.854,0.869c-0.735,0-1.442-0.147-2.122-0.441
		c-0.681-0.294-1.282-0.73-1.807-1.31c-0.523-0.579-0.941-1.286-1.254-2.123c-0.313-0.836-0.469-1.796-0.469-2.881v-0.11
		c0-1.084,0.161-2.044,0.482-2.881c0.321-0.836,0.744-1.544,1.269-2.122c0.523-0.579,1.125-1.021,1.806-1.323
		c0.68-0.304,1.388-0.455,2.122-0.455c0.57,0,1.09,0.078,1.558,0.234c0.469,0.156,0.896,0.363,1.282,0.62
		c0.386,0.258,0.735,0.556,1.048,0.896c0.313,0.341,0.588,0.703,0.827,1.089v-2.563h1.984v12.461c0,1.911-0.523,3.391-1.571,4.438
		C211.515,243.228,209.925,243.78,207.848,243.78z M207.931,236.805c0.552,0,1.089-0.115,1.613-0.345
		c0.523-0.229,0.982-0.561,1.378-0.992s0.717-0.956,0.965-1.572c0.248-0.615,0.372-1.309,0.372-2.081v-0.083
		c0-0.771-0.124-1.465-0.372-2.081c-0.248-0.615-0.569-1.14-0.965-1.571s-0.854-0.763-1.378-0.992
		c-0.524-0.229-1.062-0.345-1.613-0.345c-0.569,0-1.103,0.115-1.599,0.345s-0.929,0.556-1.296,0.979
		c-0.368,0.423-0.657,0.941-0.868,1.558c-0.212,0.616-0.317,1.318-0.317,2.108v0.056c0,0.771,0.105,1.471,0.317,2.095
		c0.211,0.625,0.505,1.154,0.882,1.586s0.813,0.763,1.31,0.992S207.38,236.805,207.931,236.805z"/>
	<path fill="#FFFFFF" d="M223.592,225.226h1.985v3.171c0.422-1.011,1.057-1.838,1.901-2.481c0.846-0.644,1.856-0.938,3.033-0.883
		v2.15h-0.11c-0.662,0-1.287,0.115-1.875,0.345c-0.588,0.23-1.103,0.579-1.544,1.048c-0.44,0.469-0.785,1.053-1.033,1.751
		s-0.372,1.507-0.372,2.426v6.837h-1.985V225.226z"/>
	<path fill="#FFFFFF" d="M243.853,239.893c-0.917,0-1.766-0.189-2.545-0.565c-0.779-0.377-1.453-0.892-2.021-1.544
		c-0.569-0.652-1.009-1.429-1.321-2.33c-0.312-0.899-0.467-1.874-0.467-2.922v-0.193c0-1.047,0.16-2.021,0.48-2.922
		c0.321-0.9,0.767-1.682,1.335-2.343c0.568-0.662,1.242-1.182,2.021-1.558c0.779-0.377,1.628-0.565,2.545-0.565
		s1.765,0.188,2.544,0.565c0.779,0.376,1.449,0.892,2.009,1.543c0.559,0.653,0.999,1.43,1.32,2.33c0.32,0.9,0.481,1.874,0.481,2.922
		v0.166c0,1.047-0.161,2.021-0.481,2.922c-0.321,0.9-0.766,1.687-1.334,2.357c-0.569,0.671-1.243,1.194-2.022,1.571
		C245.618,239.704,244.769,239.893,243.853,239.893z M243.894,238.101c0.625,0,1.203-0.143,1.736-0.428s0.993-0.68,1.379-1.186
		c0.386-0.505,0.689-1.098,0.91-1.778c0.22-0.68,0.33-1.415,0.33-2.205v-0.138c0-0.809-0.114-1.558-0.345-2.247
		c-0.229-0.689-0.542-1.282-0.937-1.778c-0.396-0.496-0.859-0.887-1.393-1.172c-0.533-0.284-1.103-0.427-1.709-0.427
		c-0.644,0-1.227,0.143-1.751,0.427c-0.523,0.285-0.979,0.676-1.364,1.172s-0.686,1.089-0.896,1.778s-0.316,1.43-0.316,2.219v0.139
		c0,0.809,0.11,1.558,0.33,2.246c0.221,0.689,0.528,1.282,0.924,1.778s0.859,0.887,1.393,1.172
		C242.717,237.959,243.288,238.101,243.894,238.101z"/>
	<path fill="#FFFFFF" d="M263.424,239.865c-1.471,0-2.619-0.464-3.446-1.392s-1.241-2.201-1.241-3.818v-9.429h1.985v8.85
		c0,1.287,0.289,2.274,0.868,2.964c0.579,0.688,1.393,1.033,2.44,1.033c0.514,0,0.996-0.096,1.447-0.289
		c0.45-0.193,0.836-0.469,1.157-0.827s0.574-0.79,0.759-1.296c0.184-0.505,0.275-1.062,0.275-1.668v-8.767h1.985v14.363h-1.985
		v-2.344c-0.404,0.717-0.942,1.333-1.612,1.848C265.385,239.608,264.508,239.865,263.424,239.865z"/>
	<path fill="#FFFFFF" d="M279.071,225.226h1.985v2.757c0.238-0.404,0.51-0.79,0.813-1.158c0.304-0.367,0.648-0.688,1.034-0.965
		c0.386-0.275,0.809-0.496,1.269-0.661c0.459-0.166,0.974-0.248,1.543-0.248c0.735,0,1.448,0.156,2.137,0.469
		c0.689,0.313,1.301,0.776,1.834,1.392c0.532,0.616,0.96,1.379,1.281,2.288c0.321,0.91,0.482,1.963,0.482,3.157v0.275
		c0,1.195-0.161,2.247-0.482,3.156c-0.321,0.91-0.749,1.678-1.281,2.303c-0.533,0.625-1.145,1.094-1.834,1.405
		c-0.688,0.313-1.401,0.469-2.137,0.469c-0.569,0-1.089-0.078-1.558-0.234c-0.468-0.155-0.896-0.372-1.281-0.647
		s-0.727-0.593-1.021-0.951s-0.561-0.73-0.799-1.116v6.81h-1.985V225.226z M285.329,238.073c0.569,0,1.103-0.124,1.6-0.372
		c0.496-0.248,0.928-0.606,1.295-1.075c0.368-0.469,0.657-1.047,0.869-1.736c0.211-0.689,0.316-1.476,0.316-2.357v-0.221
		c0-0.882-0.11-1.668-0.33-2.356c-0.221-0.689-0.516-1.272-0.883-1.751c-0.367-0.478-0.799-0.841-1.296-1.089
		c-0.496-0.248-1.02-0.372-1.571-0.372c-0.569,0-1.116,0.133-1.64,0.399c-0.524,0.267-0.988,0.639-1.393,1.116
		c-0.404,0.479-0.727,1.058-0.965,1.737c-0.239,0.68-0.358,1.443-0.358,2.288v0.275c0,0.846,0.119,1.608,0.358,2.288
		c0.238,0.681,0.561,1.26,0.965,1.737c0.404,0.479,0.868,0.846,1.393,1.103C284.212,237.945,284.759,238.073,285.329,238.073z"/>
</g>
</svg>
