<?xml version="1.0" encoding="utf-8"?>
<!-- Generator: Adobe Illustrator 17.0.0, SVG Export Plug-In . SVG Version: 6.00 Build 0)  -->
<!DOCTYPE svg PUBLIC "-//W3C//DTD SVG 1.1//EN" "http://www.w3.org/Graphics/SVG/1.1/DTD/svg11.dtd">
<svg version="1.1" id="Layer_1" xmlns="http://www.w3.org/2000/svg" xmlns:xlink="http://www.w3.org/1999/xlink" x="0px" y="0px"
	 width="178.58px" height="178.58px" viewBox="0 0 178.58 178.58" enable-background="new 0 0 178.58 178.58" xml:space="preserve">
<circle fill="#FFFFFF" cx="89.376" cy="89.36" r="86.22"/>
<g>
	<path fill="#FFFFFF" d="M91.052,60.345c-8.225,0-16.459,0.243-24.673-0.06c-10.925-0.403-16.12,3.977-15.408,15.465
		c0.627,10.121,0.486,20.328,0.035,30.468c-0.45,10.13,4.45,14.016,13.921,13.962c14.514-0.084,29.029,0.014,43.543-0.012
		c20.65-0.037,21.33-0.532,21.102-21.202C129.102,56.315,136.302,60.534,91.052,60.345z"/>
	<path fill="#010202" d="M91.052,60.342c45.25,0.192,38.05-4.028,38.521,38.623c0.228,20.67-0.451,21.164-21.102,21.202
		c-14.514,0.026-29.029-0.072-43.543,0.012c-9.471,0.055-14.371-3.832-13.921-13.962c0.451-10.14,0.592-20.347-0.035-30.468
		C50.26,64.261,55.456,59.881,66.38,60.284C74.593,60.588,82.827,60.345,91.052,60.342z M59.643,111.176c20.976,0,40.564,0,60.594,0
		c0-11.39,0-21.986,0-34.587c-7.201,5.938-13.111,10.107-18.163,15.137c-8.195,8.161-15.515,8.066-23.672-0.104
		C73.2,86.411,67.05,82.147,59.642,76.08C59.643,89.334,59.643,99.433,59.643,111.176z M115.351,69.531c-17.951,0-32.439,0-50.392,0
		c10.18,8.239,17.774,14.384,25.622,20.736C98.718,83.454,105.708,77.603,115.351,69.531z"/>
	<path fill="#FFFFFF" d="M59.643,111.176c0-11.744,0-21.842,0-35.095c7.408,6.067,13.558,10.331,18.76,15.542
		c8.156,8.17,15.476,8.265,23.672,0.104c5.052-5.031,10.962-9.199,18.163-15.137c0,12.601,0,23.197,0,34.587
		C100.207,111.176,80.619,111.176,59.643,111.176z"/>
	<path fill="#FFFFFF" d="M115.351,69.531c-9.643,8.073-16.632,13.924-24.77,20.736C82.733,83.916,75.14,77.77,64.959,69.531
		C82.912,69.531,97.4,69.531,115.351,69.531z"/>
</g>
</svg>
