<?xml version="1.0" encoding="utf-8"?>
<!-- Generator: Adobe Illustrator 18.1.0, SVG Export Plug-In . SVG Version: 6.00 Build 0)  -->
<svg version="1.2" baseProfile="tiny" id="Réteg_1"
	 xmlns="http://www.w3.org/2000/svg" xmlns:xlink="http://www.w3.org/1999/xlink" x="0px" y="0px" viewBox="0 0 50 50"
	 xml:space="preserve">
<style>
	.svgicon{
		fill:white;
	}
	
</style>
<g class="svgicon">
	<path d="M48.4,41.5H19.3l6.3-18l7.8,8.7c0.4,0.4,0.9,0.6,1.5,0.5c0.6-0.1,1-0.5,1.1-1.1l7.6-24.3
		c0.3-0.8-0.2-1.7-1-1.9c-0.8-0.3-1.7,0.2-1.9,1l-6.8,21.7l-7.7-8.6c-0.4-0.4-0.9-0.6-1.4-0.5c-0.6,0.1-1,0.5-1.1,1l-7.5,21.5H14
		V10.3l4.8,4.5c0.3,0.3,0.7,0.4,1.1,0.4c0.4,0,0.8-0.1,1.1-0.5c0.6-0.6,0.6-1.6-0.1-2.2l-7.4-6.8c-0.6-0.6-1.5-0.6-2.1,0l-7.4,7
		c-0.6,0.6-0.6,1.6-0.1,2.2c0.6,0.6,1.6,0.6,2.2,0.1l4.8-4.6v31.2H1.6c-0.8,0-1.6,0.7-1.6,1.6c0,0.8,0.7,1.6,1.6,1.6h15.7l0,0l0,0
		h31.2c0.8,0,1.6-0.7,1.6-1.6C50,42.3,49.3,41.5,48.4,41.5z"/>
</g>
</svg>
