<?xml version="1.0" encoding="utf-8"?>
<!-- Generator: Adobe Illustrator 19.2.1, SVG Export Plug-In . SVG Version: 6.00 Build 0)  -->
<svg version="1.1" id="Réteg_1" xmlns="http://www.w3.org/2000/svg" xmlns:xlink="http://www.w3.org/1999/xlink" x="0px" y="0px"
	 viewBox="0 0 48 48" style="enable-background:new 0 0 48 48;" xml:space="preserve">
<style type="text/css">
	.st0{fill:none;enable-background:new    ;}
	.st1{fill:#FFFFFF;}
</style>
<path class="st0" d="z"/>
<ellipse class="st1" cx="24.3" cy="24" rx="4.6" ry="4.6"/>
<path class="st1" d="M29.5,19.3h3.2c0.4,0,0.7-0.3,0.7-0.7v-3.2c0-0.4-0.3-0.7-0.7-0.7h-3.2c-0.4,0-0.7,0.3-0.7,0.7v3.2
	C28.9,19,29.2,19.3,29.5,19.3z"/>
<path class="st1" d="M24.3,0C11.1,0,0.5,10.7,0.5,24c0,13.3,10.6,24,23.8,24S48,37.3,48,24C48,10.7,37.4,0,24.3,0z M36.1,33.2
	c0,1.6-1.3,2.8-2.8,2.8H15.2c-1.6,0-2.8-1.3-2.8-2.8V14.8c0-1.6,1.3-2.8,2.8-2.8h18.1c1.6,0,2.8,1.3,2.8,2.8V33.2z"/>
<path class="st1" d="M31.5,24c0,4-3.2,7.3-7.2,7.3c-4,0-7.2-3.3-7.2-7.3c0-0.7,0.1-1.3,0.3-1.9h-2.2v10.4c0,0.4,0.3,0.7,0.7,0.7
	h17.1c0.4,0,0.7-0.3,0.7-0.7V22.1h-2.2C31.4,22.7,31.5,23.4,31.5,24z"/>
</svg>
