<?xml version="1.0" encoding="utf-8"?>
<!-- Generator: Adobe Illustrator 18.1.0, SVG Export Plug-In . SVG Version: 6.00 Build 0)  -->
<svg version="1.2" baseProfile="tiny" id="Réteg_1"
	 xmlns="http://www.w3.org/2000/svg" xmlns:xlink="http://www.w3.org/1999/xlink" x="0px" y="0px" viewBox="0 0 50 50"
	 xml:space="preserve">
<circle fill="#FFFFFF" cx="6.4" cy="10.1" r="6.3"/>
<circle fill="#FFFFFF" cx="25.2" cy="8.7" r="7.8"/>
<path fill="#FFFFFF" d="M37.1,25.8c1-0.6,12.9-9.9,12.9-9.9v33.2l-12.9-8V25.8z"/>
<path fill="#FFFFFF" d="M12.6,22.5h22.7c0,0-0.8-2.3-3.2-3.2S4,18.6,2.3,18.6C0.5,18.7,0,20.6,0,20.6s0,23.5,0,24.8
	c0,1.4,2.6,1,2.6,1H33c0,0,1.6-0.2,1.6-2.3c0-2.2,0-19.5,0-19.5H12.6V22.5z"/>
</svg>
