<?xml version="1.0" encoding="utf-8"?>
<!-- Generator: Adobe Illustrator 17.0.0, SVG Export Plug-In . SVG Version: 6.00 Build 0)  -->
<!DOCTYPE svg PUBLIC "-//W3C//DTD SVG 1.1//EN" "http://www.w3.org/Graphics/SVG/1.1/DTD/svg11.dtd">
<svg version="1.1" id="Layer_1" xmlns="http://www.w3.org/2000/svg" xmlns:xlink="http://www.w3.org/1999/xlink" x="0px" y="0px"
	 width="99.21px" height="144.57px" viewBox="0 0 99.21 144.57" enable-background="new 0 0 99.21 144.57" xml:space="preserve">
<g>
	<g>
		<path fill="#FFFFFF" d="M23.338,21.616l32.155,0.196c7.263,0.044,12.796,1.723,16.598,5.037c3.804,3.314,5.688,7.63,5.656,12.948
			s-1.818,9.362-5.355,12.131c-4.866,3.82-10.85,5.708-17.95,5.665l-11.621-0.07L42.687,79.78c-0.008,1.293,0.295,2.22,0.909,2.782
			c0.818,0.71,1.917,1.069,3.298,1.078l7.404,0.045l-0.02,3.306L22.943,86.8l0.02-3.306l6.552,0.04
			c1.298,0.008,2.25-0.243,2.859-0.754c0.607-0.51,0.915-1.206,0.92-2.088l0.316-51.961c0.008-1.322-0.37-2.279-1.133-2.872
			c-0.764-0.592-2.208-0.895-4.333-0.908l-4.825-0.029L23.338,21.616z M42.84,54.306l8.843,0.054
			c5.602,0.034,9.648-1.109,12.142-3.43c2.492-2.321,3.755-6.17,3.788-11.546c0.022-3.761-0.518-6.651-1.619-8.671
			c-1.103-2.019-2.729-3.521-4.879-4.503c-2.15-0.982-5.688-1.489-10.615-1.519c-3.256-0.02-5.319,0.276-6.188,0.888
			c-0.868,0.612-1.307,1.682-1.316,3.209L42.84,54.306z"/>
	</g>
	<g>
		<g>
			<path fill="#FFFFFF" d="M18.154,113.905l2.005,0.012l5.414,9.668l5.558-9.602l2.004,0.012l-0.109,17.987l-1.927-0.012
				l0.088-14.493l-5.622,9.576h-0.077l-5.504-9.644l-0.088,14.492l-1.851-0.012L18.154,113.905z"/>
		</g>
	</g>
	<g>
		<g>
			<path fill="#FFFFFF" d="M73.351,131.877c-1.233-0.008-2.346-0.237-3.337-0.688c-0.99-0.451-1.835-1.082-2.532-1.892
				c-0.697-0.809-1.231-1.776-1.601-2.9s-0.551-2.363-0.543-3.716l0.001-0.18c0.008-1.302,0.212-2.513,0.613-3.633
				c0.4-1.119,0.954-2.088,1.662-2.905c0.707-0.818,1.555-1.456,2.543-1.912c0.987-0.457,2.072-0.681,3.254-0.674
				c1.165,0.007,2.171,0.176,3.017,0.506c0.846,0.331,1.652,0.815,2.419,1.454l-1.165,1.534c-0.545-0.5-1.16-0.906-1.843-1.218
				c-0.684-0.313-1.514-0.472-2.489-0.478c-0.857-0.005-1.65,0.174-2.38,0.538c-0.731,0.364-1.364,0.869-1.898,1.517
				c-0.535,0.648-0.956,1.42-1.26,2.318c-0.307,0.897-0.462,1.885-0.469,2.965l-0.001,0.128c-0.007,1.13,0.133,2.155,0.418,3.073
				c0.286,0.919,0.697,1.705,1.233,2.358c0.535,0.655,1.179,1.16,1.93,1.516c0.752,0.355,1.59,0.536,2.516,0.542
				c0.771,0.005,1.495-0.115,2.173-0.359c0.679-0.244,1.25-0.545,1.715-0.901l0.031-5.062l-4.497-0.027l0.01-1.722l6.347,0.039
				l-0.047,7.708c-0.705,0.562-1.552,1.049-2.539,1.463C75.644,131.681,74.549,131.884,73.351,131.877z"/>
		</g>
	</g>
	<path fill="#FFFFFF" d="M51.104,142.379H1.384v-40.84h49.72V142.379z M4.384,139.379h43.72v-34.841H4.384V139.379z"/>
	<path fill="#FFFFFF" d="M97.825,142.379h-49.72v-40.84h49.721v40.84H97.825z M51.104,139.379h43.721v-34.841H51.104V139.379z"/>
	<path fill="#FFFFFF" d="M97.825,142.38H1.384V2.334h96.441V142.38H97.825z M4.384,139.379h90.441V5.334H4.384V139.379z"/>
</g>
</svg>
