<?xml version="1.0" encoding="utf-8"?>
<!-- Generator: Adobe Illustrator 18.1.0, SVG Export Plug-In . SVG Version: 6.00 Build 0)  -->
<svg version="1.2" baseProfile="tiny" id="Réteg_1"
	 xmlns="http://www.w3.org/2000/svg" xmlns:xlink="http://www.w3.org/1999/xlink" x="0px" y="0px" viewBox="0 0 50 50"
	 xml:space="preserve">
	 <style>
	.svgicon{
		fill:black;
	}
	
	</style>
<g class="svgicon">
<path d="M11.7,1.4c0,0,33.7,33.4,33.7,33.6c-0.6,0.6-4.5,1.2-4.5,1.2s-0.6,3.4-0.8,3.6s-3.9,1-3.9,1S35,44.9,34.6,45
	C34.5,45.1,9.5,19.4,1.1,11.8C0.4,0.8,11.7,1.4,11.7,1.4z"/>
<path d="M46.4,40.8c0,0,2.1,7.3,1.8,7.5c-0.3,0.2-1.1-0.2-7.6-1.9C42.4,41.3,46.4,40.8,46.4,40.8z"/>
<path d="M21.5,36.3l3,2.8L13.9,49.5c0,0-0.6,0.5-1.3,0.5s-1.3-0.5-1.3-0.5l-11-10.7c0,0-0.4-0.2-0.4-0.8
	c0-0.6,0.4-0.9,0.4-0.9l10.7-10.6c0,0,0.1-0.2,0.4-0.2c0.4,0,0.4,0.1,0.4,0.1l5.3,5.3c0,0,0.4,0.6-0.4,1.4c-0.7,0.8-1.7,0.4-1.9,0.3
	c-0.2-0.1-2.8-2.8-2.8-2.8L10,32.9c0,0,3,3,3.1,3.1c0.1,0.1,0.1,1.2-0.5,1.5c-0.6,0.4-1.3,0.3-1.4,0.2c-0.1-0.1-3-3-3-3L5,37.7
	l7.7,7.7L21.5,36.3z"/>
<path d="M36.2,21.5l2.8,3l10.4-10.6c0,0,0.5-0.6,0.5-1.3c0-0.6-0.5-1.3-0.5-1.3l-10.8-11c0,0-0.2-0.4-0.8-0.4
	c-0.6,0-0.9,0.4-0.9,0.4L26.3,11c0,0-0.2,0.1-0.2,0.4c0,0.4,0.1,0.4,0.1,0.4l5.3,5.3c0,0,0.6,0.4,1.4-0.4c0.8-0.7,0.4-1.7,0.2-1.9
	c-0.2-0.2-2.8-2.8-2.8-2.8l2.2-2.2c0,0,3,3,3.1,3.1c0.1,0.1,1.2,0.1,1.5-0.5c0.4-0.6,0.3-1.3,0.2-1.4c-0.1-0.1-3-3-3-3l3.1-3.1
	l7.7,7.6L36.2,21.5z"/>
</g>
</svg>
