<?xml version="1.0" encoding="utf-8"?>
<!-- Generator: Adobe Illustrator 17.0.0, SVG Export Plug-In . SVG Version: 6.00 Build 0)  -->
<!DOCTYPE svg PUBLIC "-//W3C//DTD SVG 1.1//EN" "http://www.w3.org/Graphics/SVG/1.1/DTD/svg11.dtd">
<svg version="1.1" id="Layer_1" xmlns="http://www.w3.org/2000/svg" xmlns:xlink="http://www.w3.org/1999/xlink" x="0px" y="0px"
	 width="603.78px" height="113.39px" viewBox="0 0 603.78 113.39" enable-background="new 0 0 603.78 113.39" xml:space="preserve">
<g>
	<path d="M0.22,64.405h8.449c4.99,0,8.143,2.847,8.143,7.163v0.061c0,4.806-3.857,7.317-8.571,7.317H3.985v6.888H0.22V64.405z
		 M8.363,75.549c2.847,0,4.623-1.592,4.623-3.827v-0.061c0-2.51-1.806-3.826-4.623-3.826H3.985v7.714H8.363z"/>
	<path d="M30.117,64.405h9.551c2.694,0,4.806,0.796,6.184,2.143c1.132,1.163,1.775,2.755,1.775,4.622v0.061
		c0,3.521-2.112,5.633-5.112,6.49l5.786,8.113h-4.439l-5.266-7.47h-4.715v7.47h-3.765V64.405z M39.393,75.028
		c2.693,0,4.408-1.408,4.408-3.582v-0.061c0-2.296-1.653-3.551-4.439-3.551h-5.48v7.194H39.393z"/>
	<path d="M61.606,64.405h15.888v3.368H65.371v5.571h10.746v3.368H65.371v5.755h12.276v3.368H61.606V64.405z"/>
	<path d="M90.952,64.405h4.01l6.521,10.133l6.521-10.133h4.01v21.429h-3.766V70.467l-6.765,10.102h-0.123l-6.705-10.041v15.307
		h-3.704V64.405z"/>
	<path d="M125.32,64.405h3.766v21.429h-3.766V64.405z"/>
	<path d="M142.391,76.742V64.405h3.766v12.184c0,3.98,2.05,6.123,5.418,6.123c3.337,0,5.388-2.021,5.388-5.97V64.405h3.765v12.153
		c0,6.398-3.612,9.612-9.215,9.612C145.942,86.171,142.391,82.957,142.391,76.742z"/>
	<path d="M174.033,64.405h4.01l6.521,10.133l6.521-10.133h4.01v21.429h-3.766V70.467l-6.765,10.102h-0.123l-6.704-10.041v15.307
		h-3.704V64.405z"/>
	<g>
		<line fill="none" stroke="#000000" stroke-width="4" stroke-miterlimit="10" x1="77.647" y1="52.909" x2="61.606" y2="52.909"/>
		<line fill="none" stroke="#000000" stroke-width="4" stroke-miterlimit="10" x1="48.301" y1="52.909" x2="0.22" y2="52.909"/>
		<line fill="none" stroke="#000000" stroke-width="4" stroke-miterlimit="10" x1="195.345" y1="52.909" x2="90.952" y2="52.909"/>
	</g>
	<polygon points="34.937,112.481 37.122,112.481 37.122,107.906 42.806,107.906 42.806,105.826 37.122,105.826 37.122,103.076 
		43.482,103.076 43.482,100.982 34.937,100.982 	"/>
	<path d="M68.718,100.906l-5.238,11.574h2.313l1.246-2.774h5.066l1.229,2.774h2.376l-5.238-11.574H68.718z M67.953,107.641
		l1.626-3.629l1.616,3.629H67.953z"/>
	<polygon points="103.999,105.646 98.94,105.646 98.94,100.982 96.755,100.982 96.755,112.481 98.94,112.481 98.94,107.756 
		103.999,107.756 103.999,112.481 106.185,112.481 106.185,100.982 103.999,100.982 	"/>
	<rect x="123.839" y="96.409" width="6.727" height="2"/>
	<path d="M126.326,100.906l-5.238,11.574h2.313l1.245-2.774h5.066l1.229,2.774h2.376l-5.238-11.574H126.326z M125.56,107.641
		l1.626-3.629l1.616,3.629H125.56z"/>
	<polygon points="156.266,100.982 147.077,100.982 147.077,103.046 153.118,103.046 146.852,111.013 146.852,112.481 
		156.266,112.481 156.266,110.416 149.988,110.416 156.266,102.449 	"/>
	<g>
		<g>
			<polygon fill="none" stroke="#000000" stroke-width="3" stroke-miterlimit="10" points="152.178,41.629 152.178,15.409 
				64.345,0.909 36.72,15.409 36.72,41.629 			"/>
			<line fill="none" stroke="#000000" stroke-width="3" stroke-miterlimit="10" x1="64.345" y1="41.629" x2="64.345" y2="0.909"/>
		</g>
		<path fill="none" stroke="#000000" stroke-width="3" stroke-miterlimit="10" d="M98.744,27.559"/>
		<path fill="none" stroke="#000000" stroke-width="3" stroke-miterlimit="10" d="M78.95,24.92"/>
		<path fill="none" stroke="#000000" stroke-width="3" stroke-miterlimit="10" d="M98.27,27.4"/>
		<path fill="none" stroke="#000000" stroke-width="3" stroke-miterlimit="10" d="M114.446,18.909"/>
		<polygon fill="none" stroke="#000000" stroke-width="3" stroke-miterlimit="10" points="74.95,35.629 74.95,11.651 
			143.496,21.481 143.496,35.629 		"/>
		<line fill="none" stroke="#000000" stroke-width="3" stroke-miterlimit="10" x1="74.95" y1="13.651" x2="143.496" y2="23.481"/>
		<path fill="none" stroke="#000000" stroke-width="3" stroke-miterlimit="10" d="M98.744,27.559"/>
		<path fill="none" stroke="#000000" stroke-width="3" stroke-miterlimit="10" d="M98.744,41.629"/>
		<line fill="none" stroke="#000000" stroke-width="3" stroke-miterlimit="10" x1="140.912" y1="21.269" x2="140.912" y2="35.629"/>
	</g>
</g>
<g>
	<path d="M408.655,64.405h8.449c4.99,0,8.143,2.847,8.143,7.163v0.061c0,4.806-3.857,7.317-8.571,7.317h-4.256v6.888h-3.765V64.405z
		 M416.798,75.549c2.847,0,4.623-1.592,4.623-3.827v-0.061c0-2.51-1.806-3.826-4.623-3.826h-4.378v7.714H416.798z"/>
	<path d="M438.552,64.405h9.551c2.694,0,4.807,0.796,6.184,2.143c1.133,1.163,1.775,2.755,1.775,4.622v0.061
		c0,3.521-2.113,5.633-5.112,6.49l5.786,8.113h-4.439l-5.266-7.47h-4.715v7.47h-3.765V64.405z M447.828,75.028
		c2.693,0,4.408-1.408,4.408-3.582v-0.061c0-2.296-1.654-3.551-4.439-3.551h-5.48v7.194H447.828z"/>
	<path d="M470.041,64.405h15.888v3.368h-12.122v5.571h10.746v3.368h-10.746v5.755h12.276v3.368h-16.041V64.405z"/>
	<path d="M499.387,64.405h4.01l6.521,10.133l6.521-10.133h4.01v21.429h-3.766V70.467l-6.765,10.102h-0.123l-6.704-10.041v15.307
		h-3.704V64.405z"/>
	<path d="M533.755,64.405h3.766v21.429h-3.766V64.405z"/>
	<path d="M550.826,76.742V64.405h3.766v12.184c0,3.98,2.05,6.123,5.418,6.123c3.337,0,5.388-2.021,5.388-5.97V64.405h3.765v12.153
		c0,6.398-3.612,9.612-9.215,9.612C554.377,86.171,550.826,82.957,550.826,76.742z"/>
	<path d="M582.468,64.405h4.01l6.521,10.133l6.521-10.133h4.01v21.429h-3.766V70.467l-6.765,10.102h-0.123l-6.704-10.041v15.307
		h-3.704V64.405z"/>
	<g>
		<line fill="none" stroke="#000000" stroke-width="4" stroke-miterlimit="10" x1="486.082" y1="52.909" x2="470.041" y2="52.909"/>
		<line fill="none" stroke="#000000" stroke-width="4" stroke-miterlimit="10" x1="456.736" y1="52.909" x2="408.655" y2="52.909"/>
		<line fill="none" stroke="#000000" stroke-width="4" stroke-miterlimit="10" x1="603.78" y1="52.909" x2="499.387" y2="52.909"/>
	</g>
	<polygon points="443.372,112.481 445.557,112.481 445.557,107.906 451.241,107.906 451.241,105.826 445.557,105.826 
		445.557,103.076 451.917,103.076 451.917,100.982 443.372,100.982 	"/>
	<path d="M477.153,100.906l-5.238,11.574h2.314l1.246-2.774h5.066l1.228,2.774h2.376l-5.238-11.574H477.153z M476.388,107.641
		l1.626-3.629l1.616,3.629H476.388z"/>
	<polygon points="512.434,105.646 507.375,105.646 507.375,100.982 505.19,100.982 505.19,112.481 507.375,112.481 507.375,107.756 
		512.434,107.756 512.434,112.481 514.62,112.481 514.62,100.982 512.434,100.982 	"/>
	<rect x="532.274" y="96.409" width="6.727" height="2"/>
	<path d="M534.761,100.906l-5.238,11.574h2.314l1.245-2.774h5.066l1.229,2.774h2.376l-5.238-11.574H534.761z M533.995,107.641
		l1.626-3.629l1.616,3.629H533.995z"/>
	<polygon points="564.701,100.982 555.512,100.982 555.512,103.046 561.553,103.046 555.287,111.013 555.287,112.481 
		564.701,112.481 564.701,110.416 558.423,110.416 564.701,102.449 	"/>
	<g>
		<g>
			<polygon fill="#A08162" stroke="#000000" stroke-width="3" stroke-miterlimit="10" points="560.613,41.629 560.613,15.409 
				472.78,0.909 445.155,15.409 445.155,41.629 			"/>
			
				<line fill="#B78563" stroke="#000000" stroke-width="3" stroke-miterlimit="10" x1="472.78" y1="41.629" x2="472.78" y2="0.909"/>
		</g>
		<path fill="none" stroke="#000000" stroke-width="3" stroke-miterlimit="10" d="M507.179,27.559"/>
		<path fill="none" stroke="#000000" stroke-width="3" stroke-miterlimit="10" d="M487.385,24.92"/>
		<path fill="none" stroke="#000000" stroke-width="3" stroke-miterlimit="10" d="M506.705,27.4"/>
		<path fill="none" stroke="#000000" stroke-width="3" stroke-miterlimit="10" d="M522.881,18.909"/>
		<polygon fill="#FFFFFF" stroke="#000000" stroke-width="3" stroke-miterlimit="10" points="483.385,35.629 483.385,11.651 
			551.931,21.481 551.931,35.629 		"/>
		<line fill="none" stroke="#000000" stroke-width="3" stroke-miterlimit="10" x1="483.385" y1="13.651" x2="551.931" y2="23.481"/>
		<path fill="none" stroke="#000000" stroke-width="3" stroke-miterlimit="10" d="M507.179,27.559"/>
		<path fill="none" stroke="#000000" stroke-width="3" stroke-miterlimit="10" d="M507.179,41.629"/>
		<line fill="none" stroke="#000000" stroke-width="3" stroke-miterlimit="10" x1="549.348" y1="21.269" x2="549.348" y2="35.629"/>
	</g>
</g>
</svg>
