<?xml version="1.0" encoding="utf-8"?>
<!-- Generator: Adobe Illustrator 17.0.0, SVG Export Plug-In . SVG Version: 6.00 Build 0)  -->
<!DOCTYPE svg PUBLIC "-//W3C//DTD SVG 1.1//EN" "http://www.w3.org/Graphics/SVG/1.1/DTD/svg11.dtd">
<svg version="1.1" id="Layer_1" xmlns="http://www.w3.org/2000/svg" xmlns:xlink="http://www.w3.org/1999/xlink" x="0px" y="0px"
	 width="195.59px" height="113.39px" viewBox="0 0 195.59 113.39" enable-background="new 0 0 195.59 113.39" xml:space="preserve">
<g>
	<path fill="#FFFFFF" d="M0.232,65.315h8.449c4.99,0,8.143,2.847,8.143,7.164v0.061c0,4.806-3.857,7.317-8.571,7.317H3.998v6.888
		H0.232V65.315z M8.375,76.458c2.847,0,4.623-1.592,4.623-3.827V72.57c0-2.51-1.806-3.826-4.623-3.826H3.998v7.714H8.375z"/>
	<path fill="#FFFFFF" d="M30.13,65.315h9.551c2.694,0,4.806,0.796,6.184,2.143c1.132,1.163,1.775,2.755,1.775,4.622v0.061
		c0,3.521-2.112,5.633-5.112,6.49l5.786,8.113h-4.439l-5.266-7.47h-4.715v7.47H30.13V65.315z M39.405,75.938
		c2.693,0,4.408-1.408,4.408-3.582v-0.061c0-2.296-1.653-3.551-4.439-3.551h-5.48v7.194H39.405z"/>
	<path fill="#FFFFFF" d="M61.619,65.315h15.888v3.368H65.384v5.571H76.13v3.368H65.384v5.755H77.66v3.368H61.619V65.315z"/>
	<path fill="#FFFFFF" d="M90.965,65.315h4.01l6.521,10.133l6.521-10.133h4.01v21.429h-3.766V71.376l-6.765,10.102h-0.123
		l-6.704-10.041v15.307h-3.704V65.315z"/>
	<path fill="#FFFFFF" d="M125.332,65.315h3.766v21.429h-3.766V65.315z"/>
	<path fill="#FFFFFF" d="M142.403,77.652V65.315h3.766v12.184c0,3.98,2.05,6.123,5.418,6.123c3.337,0,5.388-2.021,5.388-5.97V65.315
		h3.765v12.153c0,6.398-3.612,9.612-9.215,9.612C145.955,87.08,142.403,83.866,142.403,77.652z"/>
	<path fill="#FFFFFF" d="M174.046,65.315h4.011l6.521,10.133l6.521-10.133h4.01v21.429h-3.766V71.376l-6.765,10.102h-0.123
		l-6.704-10.041v15.307h-3.704V65.315z"/>
	<g>
		<line fill="none" stroke="#FFFFFF" stroke-width="4" stroke-miterlimit="10" x1="77.66" y1="53.819" x2="61.619" y2="53.819"/>
		<line fill="none" stroke="#FFFFFF" stroke-width="4" stroke-miterlimit="10" x1="48.314" y1="53.819" x2="0.232" y2="53.819"/>
		<line fill="none" stroke="#FFFFFF" stroke-width="4" stroke-miterlimit="10" x1="195.357" y1="53.819" x2="90.965" y2="53.819"/>
	</g>
	<polygon fill="#FFFFFF" points="34.949,113.39 37.135,113.39 37.135,108.816 42.818,108.816 42.818,106.736 37.135,106.736 
		37.135,103.986 43.494,103.986 43.494,101.891 34.949,101.891 	"/>
	<path fill="#FFFFFF" d="M68.731,101.816l-5.238,11.574h2.314l1.246-2.774h5.066l1.229,2.774h2.376l-5.238-11.574H68.731z
		 M67.966,108.55l1.626-3.629l1.616,3.629H67.966z"/>
	<polygon fill="#FFFFFF" points="104.012,106.555 98.952,106.555 98.952,101.891 96.768,101.891 96.768,113.39 98.952,113.39 
		98.952,108.665 104.012,108.665 104.012,113.39 106.197,113.39 106.197,101.891 104.012,101.891 	"/>
	<rect x="123.852" y="97.319" fill="#FFFFFF" width="6.727" height="2"/>
	<path fill="#FFFFFF" d="M126.338,101.816L121.1,113.39h2.313l1.245-2.774h5.066l1.23,2.774h2.376l-5.238-11.574H126.338z
		 M125.573,108.55l1.626-3.629l1.616,3.629H125.573z"/>
	<polygon fill="#FFFFFF" points="156.279,101.891 147.089,101.891 147.089,103.955 153.13,103.955 146.865,111.922 146.865,113.39 
		156.279,113.39 156.279,111.326 150.001,111.326 156.279,103.359 	"/>
	<g>
		<g>
			<polygon fill="none" stroke="#FFFFFF" stroke-width="3" stroke-miterlimit="10" points="152.19,42.538 152.19,16.319 
				64.357,1.819 36.732,16.319 36.732,42.538 			"/>
			<line fill="none" stroke="#FFFFFF" stroke-width="3" stroke-miterlimit="10" x1="64.357" y1="42.538" x2="64.357" y2="1.819"/>
		</g>
		<path fill="none" stroke="#FFFFFF" stroke-width="3" stroke-miterlimit="10" d="M98.757,28.468"/>
		<path fill="none" stroke="#FFFFFF" stroke-width="3" stroke-miterlimit="10" d="M78.962,25.829"/>
		<path fill="none" stroke="#FFFFFF" stroke-width="3" stroke-miterlimit="10" d="M98.283,28.309"/>
		<path fill="none" stroke="#FFFFFF" stroke-width="3" stroke-miterlimit="10" d="M114.458,19.819"/>
		<polygon fill="none" stroke="#FFFFFF" stroke-width="3" stroke-miterlimit="10" points="74.962,36.538 74.962,12.56 
			143.508,22.39 143.508,36.538 		"/>
		<line fill="none" stroke="#FFFFFF" stroke-width="3" stroke-miterlimit="10" x1="74.962" y1="14.56" x2="143.508" y2="24.39"/>
		<path fill="none" stroke="#FFFFFF" stroke-width="3" stroke-miterlimit="10" d="M98.757,28.468"/>
		<path fill="none" stroke="#FFFFFF" stroke-width="3" stroke-miterlimit="10" d="M98.757,42.538"/>
		<line fill="none" stroke="#FFFFFF" stroke-width="3" stroke-miterlimit="10" x1="140.925" y1="22.178" x2="140.925" y2="36.538"/>
	</g>
</g>
</svg>
