<?xml version="1.0" encoding="utf-8"?>
<!-- Generator: Adobe Illustrator 18.1.0, SVG Export Plug-In . SVG Version: 6.00 Build 0)  -->
<svg version="1.2" baseProfile="tiny" id="Réteg_1"
	 xmlns="http://www.w3.org/2000/svg" xmlns:xlink="http://www.w3.org/1999/xlink" x="0px" y="0px" viewBox="0 0 52 38"
	 xml:space="preserve">
<g>
	<path fill="#FFFFFF" d="M41,0H11C5.1,0,0.3,4.8,0.3,10.7v16.6C0.3,33.2,5.1,38,11,38h30c5.9,0,10.7-4.8,10.7-10.7V10.7
		C51.7,4.8,46.9,0,41,0z M48.1,10.7v16.6c0,3.9-3.2,7.1-7.1,7.1H11c-3.9,0-7.1-3.2-7.1-7.1V10.7c0-3.9,3.2-7.1,7.1-7.1h30
		C44.9,3.6,48.1,6.8,48.1,10.7z"/>
	<path fill="#FFFFFF" d="M18.1,29.6L36.4,19L18.1,8.4V29.6z M29.2,19l-7.5,4.3v-8.7L29.2,19z"/>
</g>
</svg>
