<?xml version="1.0" encoding="utf-8"?>
<!-- Generator: Adobe Illustrator 19.2.1, SVG Export Plug-In . SVG Version: 6.00 Build 0)  -->
<svg version="1.1" id="Réteg_1" xmlns="http://www.w3.org/2000/svg" xmlns:xlink="http://www.w3.org/1999/xlink" x="0px" y="0px"
	 viewBox="0 0 48 48" style="enable-background:new 0 0 48 48;" xml:space="preserve">
<style type="text/css">
	.st0{fill:#FFFFFF;}
</style>
<path class="st0" d="M24,0c-13.2,0-24,10.7-24,24c0,13.3,10.7,24,24,24s24-10.7,24-24C48,10.7,37.3,0,24,0z M36,24.9
	c0,1.9-0.2,3.9-0.2,3.9s-0.2,1.7-1,2.4c-0.9,1-1.9,1-2.4,1c-3.4,0.2-8.4,0.3-8.4,0.3s-6.2-0.1-8.1-0.2c-0.5-0.1-1.7-0.1-2.6-1
	c-0.7-0.7-1-2.4-1-2.4s-0.2-1.9-0.2-3.9v-1.8c0-1.9,0.2-3.9,0.2-3.9s0.2-1.7,1-2.4c0.9-1,1.9-1,2.4-1c3.4-0.2,8.4-0.2,8.4-0.2h0
	c0,0,5,0,8.4,0.2c0.5,0.1,1.5,0.1,2.4,1c0.7,0.7,1,2.4,1,2.4s0.2,1.9,0.2,3.9V24.9z"/>
<polygon class="st0" points="21.2,28.1 29.1,24 21.2,19.9 "/>
</svg>
